# xmcd
# 
# Track frame offsets:
#     150
#     28828
#     46073
#     82085
#     114675
#     151375
#     180450
#     220753
#     242530
# 
# Disc length: 4216
# 
# Revision: 3
# Processed by: cddbd v1.5.2PL0 Copyright (c) Steve Scherf et al.
# Submitted via: fre:ac v1.0.17
# 
DISCID=6f107609
DTITLE=Hagen Quartett - Debussy, Rave, Webern - String Quartett - Hagen Quartett
DYEAR=0
DGENRE=Chamber Music
TTITLE0=Debussy, String Quartet I
TTITLE1=II
TTITLE2=III
TTITLE3=IV
TTITLE4=Ravel, String Quartet I
TTITLE5=II
TTITLE6=III
TTITLE7=IV
TTITLE8=Webern, String Quartet
EXTD=
EXTT0=Debussy - String Quartet in G Minor, \nOp.10\n
EXTT1=Debussy - String Quartet in G Minor, \nOp.10\n
EXTT2=Debussy - String Quartet in G Minor, Op. \n10\n
EXTT3=Debussy - String Quartet in G Minor, \nOp.10\n
EXTT4=Ravel - String Quartet in F Major\n
EXTT5=Ravel - String Quartet in F Major\n
EXTT6=Ravel - String Quartet in F Major\n
EXTT7=Ravel - String Quartet in F Major\n
EXTT8=Duster und schwer - Mit grossem \nSchwung - Sehr breit - Langsam - Sehr \nLangsam - Schnell - Mit grosser Macht - \nSehr breit - Mit innigstem und ganz \nzartem Ausdruck - Zart bewegt - Sehr \nlangsam\n
PLAYORDER=
